Sans Serif-Regular.ufo
<glyph name="comma" format="2">
	<advance width="203"/>
	<unicode hex="002C"/>
	<outline>
		<contour>
			<point x="45" y="44" type="curve" smooth="yes"/>
			<point x="45" y="3"/>
			<point x="88" y="-26"/>
			<point x="136" y="-1" type="curve"/>
			<point x="110" y="32" type="line"/>
			<point x="108" y="-1"/>
			<point x="101" y="-28"/>
			<point x="60" y="-80" type="curve"/>
			<point x="94" y="-107" type="line"/>
			<point x="144" y="-53"/>
			<point x="158" y="-18"/>
			<point x="158" y="22" type="curve"/>
			<point x="158" y="69"/>
			<point x="139" y="100"/>
			<point x="102" y="100" type="curve" smooth="yes"/>
			<point x="69" y="100"/>
			<point x="45" y="75"/>
		</contour>
	</outline>
</glyph>
<glyph name="hyphen" format="2">
	<advance width="410"/>
	<unicode hex="002D"/>
	<outline>
		<contour>
			<point x="45" y="389" type="line"/>
			<point x="45" y="319" type="line"/>
			<point x="365" y="319" type="line"/>
			<point x="365" y="389" type="line"/>
		</contour>
	</outline>
</glyph>
<glyph name="period" format="2">
	<advance width="200"/>
	<unicode hex="002E"/>
	<outline>
		<contour>
			<point x="99" y="-10" type="curve" smooth="yes"/>
			<point x="129" y="-10"/>
			<point x="155" y="15"/>
			<point x="155" y="45" type="curve" smooth="yes"/>
			<point x="155" y="75"/>
			<point x="130" y="100"/>
			<point x="99" y="100" type="curve" smooth="yes"/>
			<point x="69" y="100"/>
			<point x="45" y="75"/>
			<point x="45" y="45" type="curve" smooth="yes"/>
			<point x="45" y="15"/>
			<point x="69" y="-10"/>
		</contour>
	</outline>
</glyph>
<glyph name="zero" format="2">
	<advance width="700"/>
	<unicode hex="0030"/>
	<outline>
		<contour>
			<point x="355" y="-15" type="curve" smooth="yes"/>
			<point x="514" y="-15"/>
			<point x="655" y="141"/>
			<point x="655" y="350" type="curve" smooth="yes"/>
			<point x="655" y="559"/>
			<point x="514" y="715"/>
			<point x="355" y="715" type="curve" smooth="yes"/>
			<point x="186" y="715"/>
			<point x="45" y="559"/>
			<point x="45" y="350" type="curve" smooth="yes"/>
			<point x="45" y="141"/>
			<point x="186" y="-15"/>
		</contour>
		<contour>
			<point x="355" y="55" type="curve" smooth="yes"/>
			<point x="235" y="55"/>
			<point x="130" y="181"/>
			<point x="130" y="350" type="curve" smooth="yes"/>
			<point x="130" y="519"/>
			<point x="235" y="645"/>
			<point x="355" y="645" type="curve" smooth="yes"/>
			<point x="465" y="645"/>
			<point x="570" y="519"/>
			<point x="570" y="350" type="curve" smooth="yes"/>
			<point x="570" y="181"/>
			<point x="465" y="55"/>
		</contour>
	</outline>
</glyph>
<glyph name="one" format="2">
	<advance width="357"/>
	<unicode hex="0031"/>
	<outline>
		<contour>
			<point x="141" y="700" type="line"/>
			<point x="141" y="0" type="line"/>
			<point x="226" y="0" type="line"/>
			<point x="226" y="700" type="line"/>
		</contour>
		<contour>
			<point x="45" y="631" type="line"/>
			<point x="45" y="571" type="line"/>
			<point x="177" y="571" type="line"/>
			<point x="177" y="631" type="line"/>
		</contour>
		<contour>
			<point x="141" y="700" type="line"/>
			<point x="141" y="654"/>
			<point x="109" y="631"/>
			<point x="45" y="631" type="curve"/>
			<point x="202" y="595" type="line"/>
		</contour>
		<contour>
			<point x="45" y="70" type="line"/>
			<point x="45" y="0" type="line"/>
			<point x="151" y="0" type="line"/>
			<point x="151" y="70" type="line"/>
		</contour>
		<contour>
			<point x="216" y="70" type="line"/>
			<point x="216" y="0" type="line"/>
			<point x="312" y="0" type="line"/>
			<point x="312" y="70" type="line"/>
		</contour>
	</outline>
</glyph>
<glyph name="two" format="2">
	<advance width="600"/>
	<unicode hex="0032"/>
	<outline>
		<contour>
			<point x="60" y="70" type="curve"/>
			<point x="149" y="70" type="line"/>
			<point x="149" y="220"/>
			<point x="224" y="254"/>
			<point x="311" y="277" type="curve" smooth="yes"/>
			<point x="417" y="306"/>
			<point x="535" y="349"/>
			<point x="535" y="485" type="curve"/>
			<point x="535" y="604"/>
			<point x="445" y="700"/>
			<point x="306" y="700" type="curve" smooth="yes"/>
			<point x="167" y="700"/>
			<point x="65" y="600"/>
			<point x="65" y="485" type="curve"/>
			<point x="150" y="485" type="line"/>
			<point x="150" y="564"/>
			<point x="218" y="630"/>
			<point x="306" y="630" type="curve" smooth="yes"/>
			<point x="396" y="630"/>
			<point x="450" y="564"/>
			<point x="450" y="485" type="curve"/>
			<point x="450" y="403"/>
			<point x="376" y="379"/>
			<point x="292" y="358" type="curve" smooth="yes"/>
			<point x="184" y="331"/>
			<point x="61" y="260"/>
		</contour>
		<contour>
			<point x="60" y="0" type="line"/>
			<point x="540" y="0" type="line"/>
			<point x="540" y="70" type="line"/>
			<point x="60" y="70" type="line"/>
		</contour>
	</outline>
</glyph>
<glyph name="three" format="2">
	<advance width="640"/>
	<unicode hex="0033"/>
	<outline>
		<contour>
			<point x="324" y="-15" type="curve" smooth="yes"/>
			<point x="503" y="-15"/>
			<point x="595" y="71"/>
			<point x="595" y="190" type="curve" smooth="yes"/>
			<point x="595" y="316"/>
			<point x="504" y="405"/>
			<point x="325" y="405" type="curve"/>
			<point x="325" y="335" type="line"/>
			<point x="455" y="334"/>
			<point x="510" y="279"/>
			<point x="510" y="190" type="curve" smooth="yes"/>
			<point x="510" y="111"/>
			<point x="453" y="55"/>
			<point x="324" y="55" type="curve" smooth="yes"/>
			<point x="194" y="55"/>
			<point x="130" y="111"/>
			<point x="130" y="190" type="curve"/>
			<point x="45" y="190" type="line"/>
			<point x="45" y="71"/>
			<point x="145" y="-15"/>
		</contour>
		<contour>
			<point x="325" y="405" type="curve"/>
			<point x="325" y="335" type="line"/>
			<point x="474" y="335"/>
			<point x="565" y="417"/>
			<point x="565" y="526" type="curve" smooth="yes"/>
			<point x="565" y="633"/>
			<point x="474" y="715"/>
			<point x="325" y="715" type="curve" smooth="yes"/>
			<point x="176" y="715"/>
			<point x="75" y="635"/>
			<point x="75" y="526" type="curve"/>
			<point x="160" y="526" type="line"/>
			<point x="160" y="595"/>
			<point x="225" y="645"/>
			<point x="325" y="645" type="curve" smooth="yes"/>
			<point x="426" y="645"/>
			<point x="480" y="595"/>
			<point x="480" y="526" type="curve" smooth="yes"/>
			<point x="480" y="456"/>
			<point x="424" y="405"/>
		</contour>
		<contour>
			<point x="249" y="405" type="line"/>
			<point x="249" y="335" type="line"/>
			<point x="325" y="335" type="line"/>
			<point x="325" y="405" type="line"/>
		</contour>
	</outline>
</glyph>
<glyph name="four" format="2">
	<advance width="638"/>
	<unicode hex="0034"/>
	<outline>
		<contour>
			<point x="386" y="700" type="line"/>
			<point x="386" y="0" type="line"/>
			<point x="471" y="0" type="line"/>
			<point x="471" y="700" type="line"/>
		</contour>
		<contour>
			<point x="45" y="224" type="line"/>
			<point x="45" y="154" type="line"/>
			<point x="558" y="154" type="line"/>
			<point x="558" y="224" type="line"/>
		</contour>
		<contour>
			<point x="386" y="700" type="line"/>
			<point x="45" y="224" type="line"/>
			<point x="127" y="224" type="line"/>
			<point x="467" y="700" type="line"/>
		</contour>
	</outline>
</glyph>
<glyph name="five" format="2">
	<advance width="620"/>
	<unicode hex="0035"/>
	<outline>
		<contour>
			<point x="306" y="440" type="curve"/>
			<point x="306" y="370" type="line"/>
			<point x="426" y="370"/>
			<point x="490" y="314"/>
			<point x="490" y="225" type="curve" smooth="yes"/>
			<point x="490" y="136"/>
			<point x="425" y="70"/>
			<point x="305" y="70" type="curve" smooth="yes"/>
			<point x="187" y="70"/>
			<point x="130" y="136"/>
			<point x="130" y="215" type="curve"/>
			<point x="45" y="215" type="line"/>
			<point x="45" y="100"/>
			<point x="136" y="0"/>
			<point x="305" y="0" type="curve" smooth="yes"/>
			<point x="474" y="0"/>
			<point x="575" y="96"/>
			<point x="575" y="231" type="curve" smooth="yes"/>
			<point x="575" y="363"/>
			<point x="477" y="438"/>
		</contour>
		<contour>
			<point x="105" y="700" type="line"/>
			<point x="105" y="630" type="line"/>
			<point x="531" y="630" type="line"/>
			<point x="531" y="700" type="line"/>
		</contour>
		<contour>
			<point x="105" y="700" type="line"/>
			<point x="77" y="370" type="line"/>
			<point x="162" y="370" type="line"/>
			<point x="190" y="700" type="line"/>
		</contour>
		<contour>
			<point x="105" y="440" type="line"/>
			<point x="105" y="370" type="line"/>
			<point x="306" y="370" type="line"/>
			<point x="306" y="440" type="line"/>
		</contour>
	</outline>
</glyph>
<glyph name="six" format="2">
	<advance width="620"/>
	<unicode hex="0036"/>
	<outline>
		<contour>
			<point x="575" y="204" type="curve" smooth="yes"/>
			<point x="575" y="343"/>
			<point x="477" y="422"/>
			<point x="333" y="424" type="curve"/>
			<point x="243" y="424"/>
			<point x="177" y="396"/>
			<point x="177" y="382" type="curve"/>
			<point x="192" y="365" type="line"/>
			<point x="401" y="699" type="line"/>
			<point x="309" y="699" type="line"/>
			<point x="78" y="331"/>
			<point x="45" y="308"/>
			<point x="45" y="199" type="curve" smooth="yes"/>
			<point x="45" y="84"/>
			<point x="136" y="-16"/>
			<point x="305" y="-16" type="curve" smooth="yes"/>
			<point x="474" y="-16"/>
			<point x="575" y="76"/>
		</contour>
		<contour>
			<point x="490" y="204" type="curve" smooth="yes"/>
			<point x="490" y="116"/>
			<point x="425" y="54"/>
			<point x="305" y="54" type="curve" smooth="yes"/>
			<point x="187" y="54"/>
			<point x="130" y="120"/>
			<point x="130" y="199" type="curve" smooth="yes"/>
			<point x="130" y="297"/>
			<point x="174" y="354"/>
			<point x="306" y="354" type="curve" smooth="yes"/>
			<point x="426" y="354"/>
			<point x="490" y="304"/>
		</contour>
	</outline>
</glyph>
<glyph name="seven" format="2">
	<advance width="576"/>
	<unicode hex="0037"/>
	<outline>
		<contour>
			<point x="45" y="630" type="line"/>
			<point x="489" y="630" type="line"/>
			<point x="460" y="670" type="line"/>
			<point x="114" y="0" type="line"/>
			<point x="209" y="0" type="line"/>
			<point x="531" y="630" type="line"/>
			<point x="531" y="700" type="line"/>
			<point x="45" y="700" type="line"/>
		</contour>
	</outline>
</glyph>
<glyph name="eight" format="2">
	<advance width="660"/>
	<unicode hex="0038"/>
	<outline>
		<contour>
			<point x="334" y="-15" type="curve" smooth="yes"/>
			<point x="523" y="-15"/>
			<point x="615" y="71"/>
			<point x="615" y="190" type="curve" smooth="yes"/>
			<point x="615" y="316"/>
			<point x="524" y="405"/>
			<point x="335" y="405" type="curve" smooth="yes"/>
			<point x="146" y="405"/>
			<point x="45" y="319"/>
			<point x="45" y="190" type="curve" smooth="yes"/>
			<point x="45" y="71"/>
			<point x="145" y="-15"/>
		</contour>
		<contour>
			<point x="334" y="55" type="curve" smooth="yes"/>
			<point x="194" y="55"/>
			<point x="130" y="111"/>
			<point x="130" y="190" type="curve" smooth="yes"/>
			<point x="130" y="279"/>
			<point x="195" y="335"/>
			<point x="335" y="335" type="curve" smooth="yes"/>
			<point x="475" y="335"/>
			<point x="530" y="280"/>
			<point x="530" y="190" type="curve" smooth="yes"/>
			<point x="530" y="111"/>
			<point x="473" y="55"/>
		</contour>
		<contour>
			<point x="335" y="335" type="curve" smooth="yes"/>
			<point x="494" y="335"/>
			<point x="585" y="417"/>
			<point x="585" y="526" type="curve" smooth="yes"/>
			<point x="585" y="633"/>
			<point x="494" y="715"/>
			<point x="335" y="715" type="curve" smooth="yes"/>
			<point x="176" y="715"/>
			<point x="75" y="635"/>
			<point x="75" y="526" type="curve" smooth="yes"/>
			<point x="75" y="421"/>
			<point x="180" y="335"/>
		</contour>
		<contour>
			<point x="335" y="405" type="curve" smooth="yes"/>
			<point x="226" y="405"/>
			<point x="160" y="457"/>
			<point x="160" y="526" type="curve" smooth="yes"/>
			<point x="160" y="595"/>
			<point x="225" y="645"/>
			<point x="335" y="645" type="curve" smooth="yes"/>
			<point x="446" y="645"/>
			<point x="500" y="595"/>
			<point x="500" y="526" type="curve" smooth="yes"/>
			<point x="500" y="456"/>
			<point x="444" y="405"/>
		</contour>
	</outline>
</glyph>
<glyph name="nine" format="2">
	<advance width="620"/>
	<unicode hex="0039"/>
	<outline>
		<contour>
			<point x="45" y="490" type="curve" smooth="yes"/>
			<point x="45" y="331"/>
			<point x="145" y="255"/>
			<point x="291" y="255" type="curve"/>
			<point x="377" y="255"/>
			<point x="443" y="283"/>
			<point x="443" y="297" type="curve"/>
			<point x="428" y="314" type="line"/>
			<point x="219" y="0" type="line"/>
			<point x="311" y="0" type="line"/>
			<point x="542" y="348"/>
			<point x="575" y="371"/>
			<point x="575" y="490" type="curve" smooth="yes"/>
			<point x="575" y="615"/>
			<point x="484" y="715"/>
			<point x="315" y="715" type="curve" smooth="yes"/>
			<point x="146" y="715"/>
			<point x="45" y="619"/>
		</contour>
		<contour>
			<point x="130" y="490" type="curve" smooth="yes"/>
			<point x="130" y="579"/>
			<point x="195" y="645"/>
			<point x="315" y="645" type="curve" smooth="yes"/>
			<point x="433" y="645"/>
			<point x="490" y="579"/>
			<point x="490" y="490" type="curve" smooth="yes"/>
			<point x="490" y="371"/>
			<point x="433" y="325"/>
			<point x="311" y="325" type="curve" smooth="yes"/>
			<point x="194" y="325"/>
			<point x="130" y="371"/>
		</contour>
	</outline>
</glyph>
<glyph name="A" format="2">
	<advance width="665"/>
	<unicode hex="0041"/>
	<outline>
		<contour>
			<point x="293" y="700" type="line"/>
			<point x="45" y="0" type="line"/>
			<point x="130" y="0" type="line"/>
			<point x="369" y="700" type="line"/>
		</contour>
		<contour>
			<point x="293" y="700" type="line"/>
			<point x="528" y="0" type="line"/>
			<point x="620" y="0" type="line"/>
			<point x="378" y="700" type="line"/>
		</contour>
		<contour>
			<point x="163" y="224" type="line"/>
			<point x="163" y="154" type="line"/>
			<point x="495" y="154" type="line"/>
			<point x="495" y="224" type="line"/>
		</contour>
	</outline>
</glyph>
<glyph name="B" format="2">
	<advance width="643"/>
	<unicode hex="0042"/>
	<outline>
		<contour>
			<point x="260" y="338" type="line"/>
			<point x="449" y="338"/>
			<point x="558" y="379"/>
			<point x="558" y="513" type="curve" smooth="yes"/>
			<point x="558" y="647"/>
			<point x="433" y="700"/>
			<point x="304" y="700" type="curve"/>
			<point x="117" y="700" type="line"/>
			<point x="128" y="630" type="line"/>
			<point x="304" y="630" type="line"/>
			<point x="364" y="630"/>
			<point x="472" y="622"/>
			<point x="472" y="513" type="curve" smooth="yes"/>
			<point x="472" y="404"/>
			<point x="380" y="398"/>
			<point x="260" y="398" type="curve" smooth="yes"/>
			<point x="137" y="398" type="line"/>
			<point x="128" y="338" type="line"/>
		</contour>
		<contour>
			<point x="80" y="0" type="line"/>
			<point x="165" y="0" type="line"/>
			<point x="165" y="700" type="line"/>
			<point x="80" y="700" type="line"/>
		</contour>
		<contour>
			<point x="293" y="0" type="line"/>
			<point x="492" y="0"/>
			<point x="598" y="63"/>
			<point x="598" y="197" type="curve" smooth="yes"/>
			<point x="598" y="331"/>
			<point x="489" y="388"/>
			<point x="260" y="388" type="curve"/>
			<point x="117" y="388" type="line"/>
			<point x="128" y="328" type="line"/>
			<point x="260" y="328" type="line"/>
			<point x="420" y="328"/>
			<point x="512" y="307"/>
			<point x="512" y="197" type="curve" smooth="yes"/>
			<point x="512" y="88"/>
			<point x="423" y="70"/>
			<point x="293" y="70" type="curve" smooth="yes"/>
			<point x="137" y="70" type="line"/>
			<point x="128" y="0" type="line"/>
		</contour>
	</outline>
</glyph>
<glyph name="C" format="2">
	<advance width="718"/>
	<unicode hex="0043"/>
	<outline>
		<contour>
			<point x="45" y="350" type="curve" smooth="yes"/>
			<point x="45" y="141"/>
			<point x="187" y="-15"/>
			<point x="403" y="-15" type="curve" smooth="yes"/>
			<point x="538" y="-15"/>
			<point x="618" y="43"/>
			<point x="673" y="110" type="curve"/>
			<point x="612" y="162" type="line"/>
			<point x="567" y="100"/>
			<point x="505" y="55"/>
			<point x="403" y="55" type="curve" smooth="yes"/>
			<point x="253" y="55"/>
			<point x="131" y="181"/>
			<point x="131" y="350" type="curve" smooth="yes"/>
			<point x="131" y="519"/>
			<point x="253" y="645"/>
			<point x="403" y="645" type="curve" smooth="yes"/>
			<point x="495" y="645"/>
			<point x="558" y="600"/>
			<point x="602" y="539" type="curve"/>
			<point x="662" y="589" type="line"/>
			<point x="607" y="657"/>
			<point x="539" y="715"/>
			<point x="403" y="715" type="curve" smooth="yes"/>
			<point x="187" y="715"/>
			<point x="45" y="559"/>
		</contour>
	</outline>
</glyph>
<glyph name="D" format="2">
	<advance width="735"/>
	<unicode hex="0044"/>
	<outline>
		<contour>
			<point x="302" y="0" type="line"/>
			<point x="568" y="0"/>
			<point x="690" y="156"/>
			<point x="690" y="350" type="curve" smooth="yes"/>
			<point x="690" y="544"/>
			<point x="568" y="700"/>
			<point x="302" y="700" type="curve"/>
			<point x="119" y="700" type="line"/>
			<point x="130" y="630" type="line"/>
			<point x="302" y="630" type="line"/>
			<point x="502" y="630"/>
			<point x="604" y="519"/>
			<point x="604" y="350" type="curve" smooth="yes"/>
			<point x="604" y="181"/>
			<point x="502" y="70"/>
			<point x="302" y="70" type="curve" smooth="yes"/>
			<point x="139" y="70" type="line"/>
			<point x="130" y="0" type="line"/>
		</contour>
		<contour>
			<point x="80" y="0" type="line"/>
			<point x="165" y="0" type="line"/>
			<point x="165" y="700" type="line"/>
			<point x="80" y="700" type="line"/>
		</contour>
	</outline>
</glyph>
<glyph name="E" format="2">
	<advance width="644"/>
	<unicode hex="0045"/>
	<outline>
		<contour>
			<point x="80" y="700" type="line"/>
			<point x="80" y="0" type="line"/>
			<point x="165" y="0" type="line"/>
			<point x="165" y="700" type="line"/>
		</contour>
		<contour>
			<point x="138" y="70" type="line"/>
			<point x="138" y="0" type="line"/>
			<point x="584" y="0" type="line"/>
			<point x="584" y="70" type="line"/>
		</contour>
		<contour>
			<point x="138" y="700" type="line"/>
			<point x="138" y="630" type="line"/>
			<point x="574" y="630" type="line"/>
			<point x="574" y="700" type="line"/>
		</contour>
		<contour>
			<point x="138" y="398" type="line"/>
			<point x="138" y="328" type="line"/>
			<point x="534" y="328" type="line"/>
			<point x="534" y="398" type="line"/>
		</contour>
	</outline>
</glyph>
<glyph name="F" format="2">
	<advance width="619"/>
	<unicode hex="0046"/>
	<outline>
		<contour>
			<point x="80" y="700" type="line"/>
			<point x="80" y="0" type="line"/>
			<point x="165" y="0" type="line"/>
			<point x="165" y="700" type="line"/>
		</contour>
		<contour>
			<point x="138" y="700" type="line"/>
			<point x="138" y="630" type="line"/>
			<point x="574" y="630" type="line"/>
			<point x="574" y="700" type="line"/>
		</contour>
		<contour>
			<point x="138" y="398" type="line"/>
			<point x="138" y="328" type="line"/>
			<point x="534" y="328" type="line"/>
			<point x="534" y="398" type="line"/>
		</contour>
	</outline>
</glyph>
<glyph name="G" format="2">
	<advance width="749"/>
	<unicode hex="0047"/>
	<outline>
		<contour>
			<point x="608" y="334" type="line"/>
			<point x="608" y="110" type="line"/>
			<point x="693" y="112" type="line"/>
			<point x="693" y="334" type="line"/>
		</contour>
		<contour>
			<point x="387" y="368" type="line"/>
			<point x="387" y="298" type="line"/>
			<point x="693" y="298" type="line"/>
			<point x="693" y="368" type="line"/>
		</contour>
		<contour>
			<point x="45" y="350" type="curve" smooth="yes"/>
			<point x="45" y="141"/>
			<point x="187" y="-15"/>
			<point x="409" y="-15" type="curve" smooth="yes"/>
			<point x="548" y="-15"/>
			<point x="638" y="46"/>
			<point x="693" y="112" type="curve"/>
			<point x="629" y="162" type="line"/>
			<point x="596" y="106"/>
			<point x="508" y="55"/>
			<point x="409" y="55" type="curve" smooth="yes"/>
			<point x="253" y="55"/>
			<point x="131" y="181"/>
			<point x="131" y="350" type="curve" smooth="yes"/>
			<point x="131" y="519"/>
			<point x="253" y="645"/>
			<point x="403" y="645" type="curve" smooth="yes"/>
			<point x="495" y="645"/>
			<point x="558" y="600"/>
			<point x="602" y="539" type="curve"/>
			<point x="662" y="589" type="line"/>
			<point x="607" y="657"/>
			<point x="539" y="715"/>
			<point x="403" y="715" type="curve" smooth="yes"/>
			<point x="187" y="715"/>
			<point x="45" y="559"/>
		</contour>
	</outline>
</glyph>
<glyph name="H" format="2">
	<advance width="720"/>
	<unicode hex="0048"/>
	<outline>
		<contour>
			<point x="80" y="700" type="line"/>
			<point x="80" y="0" type="line"/>
			<point x="165" y="0" type="line"/>
			<point x="165" y="700" type="line"/>
		</contour>
		<contour>
			<point x="555" y="700" type="line"/>
			<point x="555" y="0" type="line"/>
			<point x="640" y="0" type="line"/>
			<point x="640" y="700" type="line"/>
		</contour>
		<contour>
			<point x="138" y="388" type="line"/>
			<point x="138" y="318" type="line"/>
			<point x="584" y="318" type="line"/>
			<point x="584" y="388" type="line"/>
		</contour>
	</outline>
</glyph>
<glyph name="J" format="2">
	<advance width="343"/>
	<unicode hex="004A"/>
	<outline>
		<contour>
			<point x="45" y="60" type="curve"/>
			<point x="45" y="-10" type="line"/>
			<point x="151" y="-10"/>
			<point x="263" y="34"/>
			<point x="263" y="225" type="curve"/>
			<point x="183" y="225" type="line"/>
			<point x="183" y="86"/>
			<point x="94" y="60"/>
		</contour>
		<contour>
			<point x="183" y="214" type="line"/>
			<point x="263" y="214" type="line"/>
			<point x="263" y="700" type="line"/>
			<point x="183" y="700" type="line"/>
		</contour>
		<contour>
			<point x="45" y="700" type="line"/>
			<point x="45" y="630" type="line"/>
			<point x="205" y="630" type="line"/>
			<point x="205" y="700" type="line"/>
		</contour>
	</outline>
</glyph>
<glyph name="K" format="2">
	<advance width="696"/>
	<unicode hex="004B"/>
	<outline>
		<contour>
			<point x="80" y="0" type="line"/>
			<point x="165" y="0" type="line"/>
			<point x="165" y="700" type="line"/>
			<point x="80" y="700" type="line"/>
		</contour>
		<contour>
			<point x="662" y="0" type="line"/>
			<point x="263" y="402" type="line"/>
			<point x="219" y="327" type="line"/>
			<point x="544" y="0" type="line"/>
		</contour>
		<contour>
			<point x="109" y="193" type="line"/>
			<point x="634" y="700" type="line"/>
			<point x="526" y="700" type="line"/>
			<point x="104" y="293" type="line"/>
		</contour>
	</outline>
</glyph>
<glyph name="L" format="2">
	<advance width="629"/>
	<unicode hex="004C"/>
	<outline>
		<contour>
			<point x="80" y="700" type="line"/>
			<point x="80" y="0" type="line"/>
			<point x="165" y="0" type="line"/>
			<point x="165" y="700" type="line"/>
		</contour>
		<contour>
			<point x="138" y="70" type="line"/>
			<point x="138" y="0" type="line"/>
			<point x="584" y="0" type="line"/>
			<point x="584" y="70" type="line"/>
		</contour>
	</outline>
</glyph>
<glyph name="M" format="2">
	<advance width="890"/>
	<unicode hex="004D"/>
	<outline>
		<contour>
			<point x="80" y="700" type="line"/>
			<point x="80" y="0" type="line"/>
			<point x="160" y="0" type="line"/>
			<point x="160" y="469" type="line"/>
			<point x="150" y="625" type="line"/>
			<point x="160" y="700" type="line"/>
		</contour>
		<contour>
			<point x="705" y="700" type="line"/>
			<point x="715" y="613" type="line"/>
			<point x="705" y="469" type="line"/>
			<point x="705" y="0" type="line"/>
			<point x="790" y="0" type="line"/>
			<point x="790" y="700" type="line"/>
		</contour>
		<contour>
			<point x="160" y="700" type="line"/>
			<point x="135" y="615" type="line"/>
			<point x="206" y="490" type="line"/>
			<point x="404" y="215" type="line"/>
			<point x="458" y="215" type="line"/>
			<point x="474" y="263" type="line"/>
		</contour>
		<contour>
			<point x="705" y="700" type="line"/>
			<point x="398" y="259" type="line"/>
			<point x="458" y="215" type="line"/>
			<point x="655" y="490" type="line"/>
			<point x="746" y="646" type="line"/>
		</contour>
	</outline>
</glyph>
<glyph name="N" format="2">
	<advance width="720"/>
	<unicode hex="004E"/>
	<outline>
		<contour>
			<point x="80" y="700" type="line"/>
			<point x="80" y="0" type="line"/>
			<point x="160" y="0" type="line"/>
			<point x="160" y="469" type="line"/>
			<point x="150" y="625" type="line"/>
			<point x="160" y="700" type="line"/>
		</contour>
		<contour>
			<point x="560" y="700" type="line"/>
			<point x="560" y="224" type="line"/>
			<point x="570" y="94" type="line"/>
			<point x="560" y="0" type="line"/>
			<point x="640" y="0" type="line"/>
			<point x="640" y="700" type="line"/>
		</contour>
		<contour>
			<point x="160" y="700" type="line"/>
			<point x="116" y="641" type="line"/>
			<point x="221" y="469" type="line"/>
			<point x="560" y="0" type="line"/>
			<point x="595" y="72" type="line"/>
			<point x="505" y="224" type="line"/>
		</contour>
	</outline>
</glyph>
<glyph name="O" format="2">
	<advance width="750"/>
	<unicode hex="004F"/>
	<outline>
		<contour>
			<point x="375" y="-15" type="curve" smooth="yes"/>
			<point x="564" y="-15"/>
			<point x="705" y="141"/>
			<point x="705" y="350" type="curve" smooth="yes"/>
			<point x="705" y="559"/>
			<point x="564" y="715"/>
			<point x="375" y="715" type="curve" smooth="yes"/>
			<point x="186" y="715"/>
			<point x="45" y="559"/>
			<point x="45" y="350" type="curve" smooth="yes"/>
			<point x="45" y="141"/>
			<point x="186" y="-15"/>
		</contour>
		<contour>
			<point x="375" y="55" type="curve" smooth="yes"/>
			<point x="235" y="55"/>
			<point x="130" y="181"/>
			<point x="130" y="350" type="curve" smooth="yes"/>
			<point x="130" y="519"/>
			<point x="235" y="645"/>
			<point x="375" y="645" type="curve" smooth="yes"/>
			<point x="515" y="645"/>
			<point x="620" y="519"/>
			<point x="620" y="350" type="curve" smooth="yes"/>
			<point x="620" y="181"/>
			<point x="515" y="55"/>
		</contour>
	</outline>
</glyph>
<glyph name="P" format="2">
	<advance width="634"/>
	<unicode hex="0050"/>
	<outline>
		<contour>
			<point x="262" y="240" type="line"/>
			<point x="491" y="240"/>
			<point x="600" y="326"/>
			<point x="600" y="470" type="curve" smooth="yes"/>
			<point x="600" y="614"/>
			<point x="491" y="700"/>
			<point x="262" y="700" type="curve"/>
			<point x="119" y="700" type="line"/>
			<point x="130" y="630" type="line"/>
			<point x="262" y="630" type="line"/>
			<point x="422" y="630"/>
			<point x="514" y="589"/>
			<point x="514" y="470" type="curve" smooth="yes"/>
			<point x="514" y="351"/>
			<point x="422" y="310"/>
			<point x="262" y="310" type="curve" smooth="yes"/>
			<point x="139" y="310" type="line"/>
			<point x="130" y="240" type="line"/>
		</contour>
		<contour>
			<point x="80" y="0" type="line"/>
			<point x="165" y="0" type="line"/>
			<point x="165" y="700" type="line"/>
			<point x="80" y="700" type="line"/>
		</contour>
	</outline>
</glyph>
<glyph name="Q" format="2">
	<advance width="750"/>
	<unicode hex="0051"/>
	<outline>
		<contour>
			<point x="375" y="-15" type="curve" smooth="yes"/>
			<point x="564" y="-15"/>
			<point x="705" y="141"/>
			<point x="705" y="350" type="curve" smooth="yes"/>
			<point x="705" y="559"/>
			<point x="564" y="715"/>
			<point x="375" y="715" type="curve" smooth="yes"/>
			<point x="186" y="715"/>
			<point x="45" y="559"/>
			<point x="45" y="350" type="curve" smooth="yes"/>
			<point x="45" y="141"/>
			<point x="186" y="-15"/>
		</contour>
		<contour>
			<point x="375" y="55" type="curve" smooth="yes"/>
			<point x="235" y="55"/>
			<point x="130" y="181"/>
			<point x="130" y="350" type="curve" smooth="yes"/>
			<point x="130" y="519"/>
			<point x="235" y="645"/>
			<point x="375" y="645" type="curve" smooth="yes"/>
			<point x="515" y="645"/>
			<point x="620" y="519"/>
			<point x="620" y="350" type="curve" smooth="yes"/>
			<point x="620" y="181"/>
			<point x="515" y="55"/>
		</contour>
		<contour>
			<point x="362" y="221" type="line"/>
			<point x="568" y="-35" type="line"/>
			<point x="677" y="-35" type="line"/>
			<point x="471" y="221" type="line"/>
		</contour>
	</outline>
</glyph>
<glyph name="R" format="2">
	<advance width="675"/>
	<unicode hex="0052"/>
	<outline>
		<contour>
			<point x="252" y="240" type="line"/>
			<point x="481" y="240"/>
			<point x="590" y="326"/>
			<point x="590" y="470" type="curve" smooth="yes"/>
			<point x="590" y="614"/>
			<point x="481" y="700"/>
			<point x="252" y="700" type="curve"/>
			<point x="119" y="700" type="line"/>
			<point x="130" y="630" type="line"/>
			<point x="252" y="630" type="line"/>
			<point x="412" y="630"/>
			<point x="504" y="589"/>
			<point x="504" y="470" type="curve" smooth="yes"/>
			<point x="504" y="351"/>
			<point x="412" y="310"/>
			<point x="252" y="310" type="curve" smooth="yes"/>
			<point x="139" y="310" type="line"/>
			<point x="130" y="240" type="line"/>
		</contour>
		<contour>
			<point x="80" y="0" type="line"/>
			<point x="165" y="0" type="line"/>
			<point x="165" y="700" type="line"/>
			<point x="80" y="700" type="line"/>
		</contour>
		<contour>
			<point x="526" y="0" type="line"/>
			<point x="630" y="0" type="line"/>
			<point x="436" y="272" type="line"/>
			<point x="332" y="272" type="line"/>
		</contour>
	</outline>
</glyph>
<glyph name="S" format="2">
	<advance width="693"/>
	<unicode hex="0053"/>
	<outline>
		<contour>
			<point x="347" y="-15" type="curve" smooth="yes"/>
			<point x="502" y="-15"/>
			<point x="648" y="46"/>
			<point x="648" y="192" type="curve"/>
			<point x="648" y="340"/>
			<point x="482" y="383"/>
			<point x="356" y="407" type="curve" smooth="yes"/>
			<point x="250" y="427"/>
			<point x="150" y="453"/>
			<point x="150" y="530" type="curve"/>
			<point x="149" y="613"/>
			<point x="258" y="642"/>
			<point x="344" y="642" type="curve" smooth="yes"/>
			<point x="459" y="642"/>
			<point x="537" y="582"/>
			<point x="570" y="537" type="curve"/>
			<point x="629" y="589" type="line"/>
			<point x="589" y="638"/>
			<point x="513" y="715"/>
			<point x="344" y="715" type="curve" smooth="yes"/>
			<point x="199" y="715"/>
			<point x="63" y="665"/>
			<point x="63" y="527" type="curve"/>
			<point x="63" y="384"/>
			<point x="217" y="341"/>
			<point x="346" y="317" type="curve" smooth="yes"/>
			<point x="446" y="298"/>
			<point x="555" y="267"/>
			<point x="560" y="187" type="curve"/>
			<point x="561" y="98"/>
			<point x="451" y="58"/>
			<point x="347" y="58" type="curve" smooth="yes"/>
			<point x="236" y="58"/>
			<point x="135" y="105"/>
			<point x="102" y="140" type="curve"/>
			<point x="45" y="86" type="line"/>
			<point x="85" y="47"/>
			<point x="189" y="-15"/>
		</contour>
	</outline>
</glyph>
<glyph name="T" format="2">
	<advance width="650"/>
	<unicode hex="0054"/>
	<outline>
		<contour>
			<point x="283" y="700" type="line"/>
			<point x="283" y="0" type="line"/>
			<point x="368" y="0" type="line"/>
			<point x="368" y="700" type="line"/>
		</contour>
		<contour>
			<point x="45" y="700" type="line"/>
			<point x="45" y="630" type="line"/>
			<point x="605" y="630" type="line"/>
			<point x="605" y="700" type="line"/>
		</contour>
	</outline>
</glyph>
<glyph name="U" format="2">
	<advance width="720"/>
	<unicode hex="0055"/>
	<outline>
		<contour>
			<point x="362" y="-15" type="curve" smooth="yes"/>
			<point x="508" y="-15"/>
			<point x="640" y="86"/>
			<point x="640" y="300" type="curve"/>
			<point x="560" y="300" type="line"/>
			<point x="560" y="115"/>
			<point x="451" y="55"/>
			<point x="362" y="55" type="curve" smooth="yes"/>
			<point x="262" y="55"/>
			<point x="165" y="131"/>
			<point x="165" y="300" type="curve"/>
			<point x="80" y="300" type="line"/>
			<point x="80" y="91"/>
			<point x="213" y="-15"/>
		</contour>
		<contour>
			<point x="80" y="297" type="line"/>
			<point x="165" y="297" type="line"/>
			<point x="165" y="700" type="line"/>
			<point x="80" y="700" type="line"/>
		</contour>
		<contour>
			<point x="560" y="299" type="line"/>
			<point x="640" y="299" type="line"/>
			<point x="640" y="700" type="line"/>
			<point x="560" y="700" type="line"/>
		</contour>
	</outline>
</glyph>
<glyph name="V" format="2">
	<advance width="665"/>
	<unicode hex="0056"/>
	<outline>
		<contour>
			<point x="373" y="0" type="line"/>
			<point x="631" y="700" type="line"/>
			<point x="546" y="700" type="line"/>
			<point x="297" y="0" type="line"/>
		</contour>
		<contour>
			<point x="371" y="0" type="line"/>
			<point x="126" y="700" type="line"/>
			<point x="34" y="700" type="line"/>
			<point x="286" y="0" type="line"/>
		</contour>
	</outline>
</glyph>
<glyph name="W" format="2">
	<advance width="956"/>
	<unicode hex="0057"/>
	<outline>
		<contour>
			<point x="327" y="0" type="line"/>
			<point x="519" y="700" type="line"/>
			<point x="440" y="700" type="line"/>
			<point x="251" y="0" type="line"/>
		</contour>
		<contour>
			<point x="327" y="0" type="line"/>
			<point x="126" y="700" type="line"/>
			<point x="34" y="700" type="line"/>
			<point x="242" y="0" type="line"/>
		</contour>
		<contour>
			<point x="725" y="0" type="line"/>
			<point x="922" y="700" type="line"/>
			<point x="837" y="700" type="line"/>
			<point x="649" y="0" type="line"/>
		</contour>
		<contour>
			<point x="725" y="0" type="line"/>
			<point x="524" y="700" type="line"/>
			<point x="440" y="700" type="line"/>
			<point x="640" y="0" type="line"/>
		</contour>
	</outline>
</glyph>
<glyph name="X" format="2">
	<advance width="704"/>
	<unicode hex="0058"/>
	<outline>
		<contour>
			<point x="567" y="0" type="line"/>
			<point x="670" y="0" type="line"/>
			<point x="146" y="700" type="line"/>
			<point x="44" y="700" type="line"/>
		</contour>
		<contour>
			<point x="34" y="0" type="line"/>
			<point x="132" y="0" type="line"/>
			<point x="371" y="336" type="line"/>
			<point x="399" y="337" type="line"/>
			<point x="657" y="700" type="line"/>
			<point x="560" y="700" type="line"/>
			<point x="354" y="395" type="line"/>
			<point x="324" y="392" type="line"/>
		</contour>
	</outline>
</glyph>
<glyph name="Y" format="2">
	<advance width="663"/>
	<unicode hex="0059"/>
	<outline>
		<contour>
			<point x="371" y="268" type="line"/>
			<point x="629" y="700" type="line"/>
			<point x="538" y="700" type="line"/>
			<point x="311" y="306" type="line"/>
			<point x="295" y="268" type="line"/>
		</contour>
		<contour>
			<point x="369" y="268" type="line"/>
			<point x="359" y="297" type="line"/>
			<point x="130" y="700" type="line"/>
			<point x="34" y="700" type="line"/>
			<point x="286" y="268" type="line"/>
		</contour>
		<contour>
			<point x="286" y="269" type="line"/>
			<point x="286" y="0" type="line"/>
			<point x="371" y="0" type="line"/>
			<point x="371" y="269" type="line"/>
		</contour>
	</outline>
</glyph>
<glyph name="Z" format="2">
	<advance width="740"/>
	<unicode hex="005A"/>
	<outline>
		<contour>
			<point x="100" y="630" type="line"/>
			<point x="655" y="630" type="line"/>
			<point x="655" y="700" type="line"/>
			<point x="100" y="700" type="line"/>
		</contour>
		<contour>
			<point x="80" y="70" type="line"/>
			<point x="188" y="70" type="line"/>
			<point x="655" y="630" type="line"/>
			<point x="548" y="630" type="line"/>
		</contour>
		<contour>
			<point x="80" y="0" type="line"/>
			<point x="660" y="0" type="line"/>
			<point x="660" y="70" type="line"/>
			<point x="80" y="70" type="line"/>
		</contour>
	</outline>
</glyph>
<glyph name="a" format="2">
	<advance width="649"/>
	<unicode hex="0061"/>
	<outline>
		<contour>
			<point x="290" y="-15" type="curve" smooth="yes"/>
			<point x="415" y="-15"/>
			<point x="520" y="98"/>
			<point x="520" y="250" type="curve" smooth="yes"/>
			<point x="520" y="402"/>
			<point x="417" y="515"/>
			<point x="290" y="515" type="curve" smooth="yes"/>
			<point x="143" y="515"/>
			<point x="40" y="402"/>
			<point x="40" y="250" type="curve" smooth="yes"/>
			<point x="40" y="98"/>
			<point x="143" y="-15"/>
		</contour>
		<contour>
			<point x="290" y="55" type="curve" smooth="yes"/>
			<point x="191" y="55"/>
			<point x="125" y="147"/>
			<point x="125" y="250" type="curve" smooth="yes"/>
			<point x="125" y="354"/>
			<point x="191" y="445"/>
			<point x="290" y="445" type="curve" smooth="yes"/>
			<point x="385" y="445"/>
			<point x="455" y="354"/>
			<point x="455" y="250" type="curve" smooth="yes"/>
			<point x="455" y="147"/>
			<point x="385" y="55"/>
		</contour>
		<contour>
			<point x="455" y="107" type="line"/>
			<point x="455" y="30"/>
			<point x="500" y="0"/>
			<point x="562" y="0" type="curve"/>
			<point x="604" y="0" type="line"/>
			<point x="604" y="70" type="line"/>
			<point x="572" y="70" type="line"/>
			<point x="552" y="70"/>
			<point x="540" y="83"/>
			<point x="540" y="106" type="curve"/>
			<point x="540" y="500" type="line"/>
			<point x="455" y="500" type="line"/>
		</contour>
	</outline>
</glyph>
<glyph name="b" format="2">
	<advance width="610"/>
	<unicode hex="0062"/>
	<outline>
		<contour>
			<point x="75" y="0" type="line"/>
			<point x="160" y="0" type="line"/>
			<point x="160" y="113" type="line"/>
			<point x="127" y="255" type="line"/>
			<point x="160" y="397" type="line"/>
			<point x="160" y="800" type="line"/>
			<point x="75" y="800" type="line"/>
		</contour>
		<contour>
			<point x="340" y="514" type="curve" smooth="yes"/>
			<point x="203" y="514"/>
			<point x="110" y="401"/>
			<point x="110" y="249" type="curve" smooth="yes"/>
			<point x="110" y="97"/>
			<point x="201" y="-16"/>
			<point x="340" y="-16" type="curve" smooth="yes"/>
			<point x="467" y="-16"/>
			<point x="570" y="97"/>
			<point x="570" y="249" type="curve" smooth="yes"/>
			<point x="570" y="401"/>
			<point x="467" y="514"/>
		</contour>
		<contour>
			<point x="320" y="444" type="curve" smooth="yes"/>
			<point x="415" y="444"/>
			<point x="485" y="352"/>
			<point x="485" y="249" type="curve" smooth="yes"/>
			<point x="485" y="145"/>
			<point x="415" y="54"/>
			<point x="320" y="54" type="curve" smooth="yes"/>
			<point x="221" y="54"/>
			<point x="155" y="143"/>
			<point x="155" y="249" type="curve" smooth="yes"/>
			<point x="155" y="352"/>
			<point x="221" y="444"/>
		</contour>
	</outline>
</glyph>
<glyph name="c" format="2">
	<advance width="536"/>
	<unicode hex="0063"/>
	<outline>
		<contour>
			<point x="40" y="250" type="curve" smooth="yes"/>
			<point x="40" y="98"/>
			<point x="143" y="-15"/>
			<point x="300" y="-15" type="curve" smooth="yes"/>
			<point x="398" y="-15"/>
			<point x="456" y="27"/>
			<point x="496" y="76" type="curve"/>
			<point x="441" y="123" type="line"/>
			<point x="408" y="78"/>
			<point x="374" y="55"/>
			<point x="300" y="55" type="curve" smooth="yes"/>
			<point x="191" y="55"/>
			<point x="125" y="147"/>
			<point x="125" y="250" type="curve" smooth="yes"/>
			<point x="125" y="354"/>
			<point x="191" y="445"/>
			<point x="300" y="445" type="curve" smooth="yes"/>
			<point x="366" y="445"/>
			<point x="400" y="422"/>
			<point x="433" y="377" type="curve"/>
			<point x="488" y="424" type="line"/>
			<point x="448" y="473"/>
			<point x="399" y="515"/>
			<point x="300" y="515" type="curve" smooth="yes"/>
			<point x="143" y="515"/>
			<point x="40" y="402"/>
		</contour>
	</outline>
</glyph>
<glyph name="d" format="2">
	<advance width="610"/>
	<unicode hex="0064"/>
	<outline>
		<contour>
			<point x="535" y="0" type="line"/>
			<point x="535" y="800" type="line"/>
			<point x="450" y="800" type="line"/>
			<point x="450" y="397" type="line"/>
			<point x="483" y="255" type="line"/>
			<point x="450" y="113" type="line"/>
			<point x="450" y="0" type="line"/>
		</contour>
		<contour>
			<point x="270" y="514" type="curve" smooth="yes"/>
			<point x="143" y="514"/>
			<point x="40" y="401"/>
			<point x="40" y="249" type="curve" smooth="yes"/>
			<point x="40" y="97"/>
			<point x="143" y="-16"/>
			<point x="270" y="-16" type="curve" smooth="yes"/>
			<point x="409" y="-16"/>
			<point x="500" y="97"/>
			<point x="500" y="249" type="curve" smooth="yes"/>
			<point x="500" y="401"/>
			<point x="407" y="514"/>
		</contour>
		<contour>
			<point x="290" y="444" type="curve" smooth="yes"/>
			<point x="389" y="444"/>
			<point x="455" y="352"/>
			<point x="455" y="249" type="curve" smooth="yes"/>
			<point x="455" y="143"/>
			<point x="389" y="54"/>
			<point x="290" y="54" type="curve" smooth="yes"/>
			<point x="195" y="54"/>
			<point x="125" y="145"/>
			<point x="125" y="249" type="curve" smooth="yes"/>
			<point x="125" y="352"/>
			<point x="195" y="444"/>
		</contour>
	</outline>
</glyph>
<glyph name="e" format="2">
	<advance width="580"/>
	<unicode hex="0065"/>
	<outline>
		<contour>
			<point x="300" y="-15" type="curve" smooth="yes"/>
			<point x="421" y="-15"/>
			<point x="482" y="42"/>
			<point x="523" y="87" type="curve"/>
			<point x="473" y="137" type="line"/>
			<point x="439" y="100"/>
			<point x="391" y="55"/>
			<point x="300" y="55" type="curve" smooth="yes"/>
			<point x="191" y="55"/>
			<point x="125" y="147"/>
			<point x="125" y="250" type="curve" smooth="yes"/>
			<point x="125" y="354"/>
			<point x="191" y="445"/>
			<point x="290" y="445" type="curve" smooth="yes"/>
			<point x="385" y="445"/>
			<point x="455" y="354"/>
			<point x="455" y="250" type="curve" smooth="yes"/>
			<point x="455" y="238"/>
			<point x="454" y="226"/>
			<point x="452" y="215" type="curve"/>
			<point x="538" y="215" type="line"/>
			<point x="539" y="227"/>
			<point x="540" y="238"/>
			<point x="540" y="250" type="curve" smooth="yes"/>
			<point x="540" y="402"/>
			<point x="437" y="515"/>
			<point x="290" y="515" type="curve" smooth="yes"/>
			<point x="143" y="515"/>
			<point x="40" y="402"/>
			<point x="40" y="250" type="curve" smooth="yes"/>
			<point x="40" y="98"/>
			<point x="143" y="-15"/>
		</contour>
		<contour>
			<point x="80" y="215" type="line"/>
			<point x="521" y="215" type="line"/>
			<point x="521" y="285" type="line"/>
			<point x="80" y="285" type="line"/>
		</contour>
	</outline>
</glyph>
<glyph name="f" format="2">
	<advance width="430"/>
	<unicode hex="0066"/>
	<outline>
		<contour>
			<point x="161" y="693" type="curve"/>
			<point x="161" y="0" type="line"/>
			<point x="246" y="0" type="line"/>
			<point x="246" y="694" type="line"/>
			<point x="246" y="717"/>
			<point x="258" y="730"/>
			<point x="278" y="730" type="curve"/>
			<point x="380" y="730" type="line"/>
			<point x="380" y="800" type="line"/>
			<point x="268" y="800" type="line"/>
			<point x="206" y="800"/>
			<point x="161" y="770"/>
		</contour>
		<contour>
			<point x="40" y="500" type="line"/>
			<point x="40" y="430" type="line"/>
			<point x="390" y="430" type="line"/>
			<point x="390" y="500" type="line"/>
		</contour>
	</outline>
</glyph>
<glyph name="g" format="2">
	<advance width="610"/>
	<unicode hex="0067"/>
	<outline>
		<contour>
			<point x="150" y="-80" type="curve"/>
			<point x="65" y="-80" type="line"/>
			<point x="65" y="-311"/>
			<point x="535" y="-379"/>
			<point x="535" y="7" type="curve" smooth="yes"/>
			<point x="535" y="499" type="line"/>
			<point x="450" y="499" type="line"/>
			<point x="450" y="386" type="line"/>
			<point x="483" y="244" type="line"/>
			<point x="450" y="102" type="line"/>
			<point x="450" y="0" type="line" smooth="yes"/>
			<point x="450" y="-291"/>
			<point x="150" y="-208"/>
		</contour>
		<contour>
			<point x="270" y="-15" type="curve" smooth="yes"/>
			<point x="407" y="-15"/>
			<point x="500" y="98"/>
			<point x="500" y="250" type="curve" smooth="yes"/>
			<point x="500" y="402"/>
			<point x="409" y="515"/>
			<point x="270" y="515" type="curve" smooth="yes"/>
			<point x="143" y="515"/>
			<point x="40" y="402"/>
			<point x="40" y="250" type="curve" smooth="yes"/>
			<point x="40" y="98"/>
			<point x="143" y="-15"/>
		</contour>
		<contour>
			<point x="290" y="55" type="curve" smooth="yes"/>
			<point x="195" y="55"/>
			<point x="125" y="147"/>
			<point x="125" y="250" type="curve" smooth="yes"/>
			<point x="125" y="354"/>
			<point x="195" y="445"/>
			<point x="290" y="445" type="curve" smooth="yes"/>
			<point x="389" y="445"/>
			<point x="455" y="356"/>
			<point x="455" y="250" type="curve" smooth="yes"/>
			<point x="455" y="147"/>
			<point x="389" y="55"/>
		</contour>
	</outline>
</glyph>
<glyph name="h" format="2">
	<advance width="640"/>
	<unicode hex="0068"/>
	<outline>
		<contour>
			<point x="75" y="800" type="line"/>
			<point x="75" y="0" type="line"/>
			<point x="160" y="0" type="line"/>
			<point x="160" y="800" type="line"/>
		</contour>
		<contour>
			<point x="480" y="247" type="line"/>
			<point x="480" y="0" type="line"/>
			<point x="565" y="0" type="line"/>
			<point x="565" y="221" type="line"/>
		</contour>
		<contour>
			<point x="128" y="164" type="curve" smooth="yes"/>
			<point x="160" y="165" type="line"/>
			<point x="160" y="364"/>
			<point x="222" y="445"/>
			<point x="324" y="445" type="curve"/>
			<point x="428" y="445"/>
			<point x="480" y="381"/>
			<point x="480" y="211" type="curve"/>
			<point x="565" y="221" type="line"/>
			<point x="565" y="391"/>
			<point x="492" y="515"/>
			<point x="350" y="515" type="curve"/>
			<point x="169" y="515"/>
			<point x="128" y="353"/>
		</contour>
	</outline>
</glyph>
<glyph name="i" format="2">
	<advance width="312"/>
	<unicode hex="0069"/>
	<outline>
		<contour>
			<point x="149" y="648" type="curve" smooth="yes"/>
			<point x="179" y="648"/>
			<point x="205" y="673"/>
			<point x="205" y="703" type="curve" smooth="yes"/>
			<point x="205" y="733"/>
			<point x="179" y="758"/>
			<point x="149" y="758" type="curve" smooth="yes"/>
			<point x="119" y="758"/>
			<point x="95" y="733"/>
			<point x="95" y="703" type="curve" smooth="yes"/>
			<point x="95" y="673"/>
			<point x="119" y="648"/>
		</contour>
		<contour>
			<point x="118" y="107" type="line"/>
			<point x="118" y="30"/>
			<point x="163" y="0"/>
			<point x="225" y="0" type="curve"/>
			<point x="267" y="0" type="line"/>
			<point x="267" y="70" type="line"/>
			<point x="235" y="70" type="line"/>
			<point x="215" y="70"/>
			<point x="203" y="83"/>
			<point x="203" y="106" type="curve"/>
			<point x="203" y="500" type="line"/>
			<point x="118" y="500" type="line"/>
		</contour>
		<contour>
			<point x="75" y="500" type="line"/>
			<point x="75" y="430" type="line"/>
			<point x="195" y="430" type="line"/>
			<point x="195" y="500" type="line"/>
		</contour>
	</outline>
</glyph>
<glyph name="j" format="2">
	<advance width="328"/>
	<unicode hex="006A"/>
	<outline>
		<contour>
			<point x="192" y="648" type="curve" smooth="yes"/>
			<point x="222" y="648"/>
			<point x="246" y="673"/>
			<point x="246" y="703" type="curve" smooth="yes"/>
			<point x="246" y="733"/>
			<point x="222" y="758"/>
			<point x="192" y="758" type="curve" smooth="yes"/>
			<point x="162" y="758"/>
			<point x="136" y="733"/>
			<point x="136" y="703" type="curve" smooth="yes"/>
			<point x="136" y="673"/>
			<point x="162" y="648"/>
		</contour>
		<contour>
			<point x="75" y="-120" type="curve"/>
			<point x="75" y="-200" type="line"/>
			<point x="181" y="-200"/>
			<point x="253" y="-135"/>
			<point x="253" y="6" type="curve"/>
			<point x="168" y="6" type="line"/>
			<point x="168" y="-83"/>
			<point x="124" y="-120"/>
		</contour>
		<contour>
			<point x="168" y="-5" type="line"/>
			<point x="253" y="-5" type="line"/>
			<point x="253" y="500" type="line"/>
			<point x="168" y="500" type="line"/>
		</contour>
		<contour>
			<point x="75" y="500" type="line"/>
			<point x="75" y="430" type="line"/>
			<point x="195" y="430" type="line"/>
			<point x="195" y="500" type="line"/>
		</contour>
	</outline>
</glyph>
<glyph name="k" format="2">
	<advance width="587"/>
	<unicode hex="006B"/>
	<outline>
		<contour>
			<point x="75" y="0" type="line"/>
			<point x="160" y="0" type="line"/>
			<point x="160" y="800" type="line"/>
			<point x="75" y="800" type="line"/>
		</contour>
		<contour>
			<point x="567" y="0" type="line"/>
			<point x="243" y="326" type="line"/>
			<point x="199" y="251" type="line"/>
			<point x="449" y="0" type="line"/>
		</contour>
		<contour>
			<point x="104" y="103" type="line"/>
			<point x="515" y="500" type="line"/>
			<point x="407" y="500" type="line"/>
			<point x="99" y="203" type="line"/>
		</contour>
	</outline>
</glyph>
<glyph name="l" format="2">
	<advance width="269"/>
	<unicode hex="006C"/>
	<outline>
		<contour>
			<point x="75" y="107" type="line"/>
			<point x="75" y="30"/>
			<point x="120" y="0"/>
			<point x="182" y="0" type="curve"/>
			<point x="224" y="0" type="line"/>
			<point x="224" y="70" type="line"/>
			<point x="192" y="70" type="line"/>
			<point x="172" y="70"/>
			<point x="160" y="83"/>
			<point x="160" y="106" type="curve"/>
			<point x="160" y="800" type="line"/>
			<point x="75" y="800" type="line"/>
		</contour>
	</outline>
</glyph>
<glyph name="m" format="2">
	<advance width="1005"/>
	<unicode hex="006D"/>
	<outline>
		<contour>
			<point x="75" y="500" type="line"/>
			<point x="75" y="0" type="line"/>
			<point x="160" y="0" type="line"/>
			<point x="160" y="500" type="line"/>
		</contour>
		<contour>
			<point x="460" y="247" type="line"/>
			<point x="460" y="0" type="line"/>
			<point x="545" y="0" type="line"/>
			<point x="545" y="221" type="line"/>
		</contour>
		<contour>
			<point x="128" y="164" type="curve"/>
			<point x="160" y="165" type="line"/>
			<point x="160" y="364"/>
			<point x="222" y="445"/>
			<point x="324" y="445" type="curve"/>
			<point x="418" y="445"/>
			<point x="460" y="381"/>
			<point x="460" y="211" type="curve"/>
			<point x="545" y="221" type="line"/>
			<point x="546" y="391"/>
			<point x="484" y="515"/>
			<point x="350" y="515" type="curve"/>
			<point x="169" y="515"/>
			<point x="128" y="353"/>
		</contour>
		<contour>
			<point x="845" y="247" type="line"/>
			<point x="845" y="0" type="line"/>
			<point x="930" y="0" type="line"/>
			<point x="930" y="221" type="line"/>
		</contour>
		<contour>
			<point x="493" y="164" type="curve"/>
			<point x="545" y="165" type="line"/>
			<point x="545" y="364"/>
			<point x="607" y="445"/>
			<point x="709" y="445" type="curve"/>
			<point x="803" y="445"/>
			<point x="845" y="381"/>
			<point x="845" y="211" type="curve"/>
			<point x="930" y="221" type="line"/>
			<point x="931" y="391"/>
			<point x="869" y="515"/>
			<point x="735" y="515" type="curve"/>
			<point x="534" y="515"/>
			<point x="493" y="353"/>
		</contour>
	</outline>
</glyph>
<glyph name="n" format="2">
	<advance width="640"/>
	<unicode hex="006E"/>
	<outline>
		<contour>
			<point x="75" y="500" type="line"/>
			<point x="75" y="0" type="line"/>
			<point x="160" y="0" type="line"/>
			<point x="160" y="500" type="line"/>
		</contour>
		<contour>
			<point x="480" y="247" type="line"/>
			<point x="480" y="0" type="line"/>
			<point x="565" y="0" type="line"/>
			<point x="565" y="221" type="line"/>
		</contour>
		<contour>
			<point x="128" y="164" type="curve"/>
			<point x="160" y="165" type="line"/>
			<point x="160" y="364"/>
			<point x="232" y="445"/>
			<point x="334" y="445" type="curve"/>
			<point x="428" y="445"/>
			<point x="480" y="381"/>
			<point x="480" y="211" type="curve"/>
			<point x="565" y="221" type="line"/>
			<point x="565" y="391"/>
			<point x="502" y="515"/>
			<point x="360" y="515" type="curve"/>
			<point x="179" y="515"/>
			<point x="128" y="353"/>
		</contour>
	</outline>
</glyph>
<glyph name="o" format="2">
	<advance width="580"/>
	<unicode hex="006F"/>
	<outline>
		<contour>
			<point x="290" y="-15" type="curve" smooth="yes"/>
			<point x="435" y="-15"/>
			<point x="540" y="98"/>
			<point x="540" y="250" type="curve" smooth="yes"/>
			<point x="540" y="402"/>
			<point x="437" y="515"/>
			<point x="290" y="515" type="curve" smooth="yes"/>
			<point x="143" y="515"/>
			<point x="40" y="402"/>
			<point x="40" y="250" type="curve" smooth="yes"/>
			<point x="40" y="98"/>
			<point x="143" y="-15"/>
		</contour>
		<contour>
			<point x="290" y="55" type="curve" smooth="yes"/>
			<point x="191" y="55"/>
			<point x="125" y="147"/>
			<point x="125" y="250" type="curve" smooth="yes"/>
			<point x="125" y="354"/>
			<point x="191" y="445"/>
			<point x="290" y="445" type="curve" smooth="yes"/>
			<point x="385" y="445"/>
			<point x="455" y="354"/>
			<point x="455" y="250" type="curve" smooth="yes"/>
			<point x="455" y="147"/>
			<point x="385" y="55"/>
		</contour>
	</outline>
</glyph>
<glyph name="p" format="2">
	<advance width="610"/>
	<unicode hex="0070"/>
	<outline>
		<contour>
			<point x="75" y="499" type="line"/>
			<point x="75" y="-200" type="line"/>
			<point x="160" y="-200" type="line"/>
			<point x="160" y="102" type="line"/>
			<point x="127" y="244" type="line"/>
			<point x="160" y="386" type="line"/>
			<point x="160" y="499" type="line"/>
		</contour>
		<contour>
			<point x="340" y="-15" type="curve" smooth="yes"/>
			<point x="467" y="-15"/>
			<point x="570" y="98"/>
			<point x="570" y="250" type="curve" smooth="yes"/>
			<point x="570" y="402"/>
			<point x="467" y="515"/>
			<point x="340" y="515" type="curve" smooth="yes"/>
			<point x="201" y="515"/>
			<point x="110" y="402"/>
			<point x="110" y="250" type="curve" smooth="yes"/>
			<point x="110" y="98"/>
			<point x="203" y="-15"/>
		</contour>
		<contour>
			<point x="320" y="55" type="curve" smooth="yes"/>
			<point x="221" y="55"/>
			<point x="155" y="147"/>
			<point x="155" y="250" type="curve" smooth="yes"/>
			<point x="155" y="356"/>
			<point x="221" y="445"/>
			<point x="320" y="445" type="curve" smooth="yes"/>
			<point x="415" y="445"/>
			<point x="485" y="354"/>
			<point x="485" y="250" type="curve" smooth="yes"/>
			<point x="485" y="147"/>
			<point x="415" y="55"/>
		</contour>
	</outline>
</glyph>
<glyph name="q" format="2">
	<advance width="610"/>
	<unicode hex="0071"/>
	<outline>
		<contour>
			<point x="535" y="499" type="line"/>
			<point x="450" y="499" type="line"/>
			<point x="450" y="386" type="line"/>
			<point x="483" y="244" type="line"/>
			<point x="450" y="102" type="line"/>
			<point x="450" y="-200" type="line"/>
			<point x="535" y="-200" type="line"/>
		</contour>
		<contour>
			<point x="270" y="-15" type="curve" smooth="yes"/>
			<point x="407" y="-15"/>
			<point x="500" y="98"/>
			<point x="500" y="250" type="curve" smooth="yes"/>
			<point x="500" y="402"/>
			<point x="409" y="515"/>
			<point x="270" y="515" type="curve" smooth="yes"/>
			<point x="143" y="515"/>
			<point x="40" y="402"/>
			<point x="40" y="250" type="curve" smooth="yes"/>
			<point x="40" y="98"/>
			<point x="143" y="-15"/>
		</contour>
		<contour>
			<point x="290" y="55" type="curve" smooth="yes"/>
			<point x="195" y="55"/>
			<point x="125" y="147"/>
			<point x="125" y="250" type="curve" smooth="yes"/>
			<point x="125" y="354"/>
			<point x="195" y="445"/>
			<point x="290" y="445" type="curve" smooth="yes"/>
			<point x="389" y="445"/>
			<point x="455" y="356"/>
			<point x="455" y="250" type="curve" smooth="yes"/>
			<point x="455" y="147"/>
			<point x="389" y="55"/>
		</contour>
	</outline>
</glyph>
<glyph name="r" format="2">
	<advance width="430"/>
	<unicode hex="0072"/>
	<outline>
		<contour>
			<point x="75" y="500" type="line"/>
			<point x="75" y="0" type="line"/>
			<point x="160" y="0" type="line"/>
			<point x="160" y="500" type="line"/>
		</contour>
		<contour>
			<point x="128" y="154" type="curve"/>
			<point x="160" y="155" type="line"/>
			<point x="160" y="354"/>
			<point x="222" y="435"/>
			<point x="390" y="435" type="curve"/>
			<point x="390" y="505" type="line"/>
			<point x="169" y="505"/>
			<point x="128" y="343"/>
		</contour>
	</outline>
</glyph>
<glyph name="s" format="2">
	<advance width="540"/>
	<unicode hex="0073"/>
	<outline>
		<contour>
			<point x="421" y="136" type="curve"/>
			<point x="422" y="75"/>
			<point x="322" y="55"/>
			<point x="270" y="55" type="curve" smooth="yes"/>
			<point x="214" y="55"/>
			<point x="128" y="78"/>
			<point x="95" y="123" type="curve"/>
			<point x="40" y="76" type="line"/>
			<point x="80" y="27"/>
			<point x="167" y="-15"/>
			<point x="270" y="-15" type="curve" smooth="yes"/>
			<point x="373" y="-15"/>
			<point x="500" y="26"/>
			<point x="500" y="136" type="curve"/>
			<point x="500" y="241"/>
			<point x="386" y="280"/>
			<point x="284" y="301" type="curve" smooth="yes"/>
			<point x="202" y="318"/>
			<point x="138" y="334"/>
			<point x="138" y="380" type="curve"/>
			<point x="137" y="433"/>
			<point x="227" y="445"/>
			<point x="270" y="445" type="curve" smooth="yes"/>
			<point x="321" y="445"/>
			<point x="397" y="422"/>
			<point x="430" y="377" type="curve"/>
			<point x="485" y="424" type="line"/>
			<point x="445" y="473"/>
			<point x="375" y="515"/>
			<point x="270" y="515" type="curve" smooth="yes"/>
			<point x="177" y="515"/>
			<point x="58" y="485"/>
			<point x="58" y="377" type="curve"/>
			<point x="58" y="272"/>
			<point x="170" y="244"/>
			<point x="274" y="221" type="curve" smooth="yes"/>
			<point x="352" y="204"/>
			<point x="421" y="186"/>
		</contour>
	</outline>
</glyph>
<glyph name="t" format="2">
	<advance width="430"/>
	<unicode hex="0074"/>
	<outline>
		<contour>
			<point x="161" y="107" type="line"/>
			<point x="161" y="30"/>
			<point x="206" y="0"/>
			<point x="268" y="0" type="curve"/>
			<point x="380" y="0" type="line"/>
			<point x="380" y="70" type="line"/>
			<point x="278" y="70" type="line"/>
			<point x="258" y="70"/>
			<point x="246" y="83"/>
			<point x="246" y="106" type="curve"/>
			<point x="246" y="740" type="line"/>
			<point x="161" y="740" type="line"/>
		</contour>
		<contour>
			<point x="40" y="430" type="line"/>
			<point x="390" y="430" type="line"/>
			<point x="390" y="500" type="line"/>
			<point x="40" y="500" type="line"/>
		</contour>
	</outline>
</glyph>
<glyph name="u" format="2">
	<advance width="620"/>
	<unicode hex="0075"/>
	<outline>
		<contour>
			<point x="545" y="0" type="line"/>
			<point x="545" y="500" type="line"/>
			<point x="460" y="500" type="line"/>
			<point x="460" y="0" type="line"/>
		</contour>
		<contour>
			<point x="160" y="213" type="line"/>
			<point x="160" y="500" type="line"/>
			<point x="75" y="500" type="line"/>
			<point x="75" y="239" type="line"/>
		</contour>
		<contour>
			<point x="492" y="336" type="curve"/>
			<point x="460" y="335" type="line"/>
			<point x="460" y="136"/>
			<point x="388" y="55"/>
			<point x="286" y="55" type="curve"/>
			<point x="202" y="55"/>
			<point x="160" y="106"/>
			<point x="160" y="249" type="curve"/>
			<point x="75" y="239" type="line"/>
			<point x="75" y="85"/>
			<point x="138" y="-15"/>
			<point x="260" y="-15" type="curve"/>
			<point x="441" y="-15"/>
			<point x="492" y="147"/>
		</contour>
	</outline>
</glyph>
<glyph name="v" format="2">
	<advance width="530"/>
	<unicode hex="0076"/>
	<outline>
		<contour>
			<point x="309" y="0" type="line"/>
			<point x="510" y="500" type="line"/>
			<point x="425" y="500" type="line"/>
			<point x="233" y="0" type="line"/>
		</contour>
		<contour>
			<point x="309" y="0" type="line"/>
			<point x="269" y="90" type="line"/>
			<point x="112" y="500" type="line"/>
			<point x="20" y="500" type="line"/>
			<point x="224" y="0" type="line"/>
		</contour>
	</outline>
</glyph>
<glyph name="w" format="2">
	<advance width="928"/>
	<unicode hex="0077"/>
	<outline>
		<contour>
			<point x="309" y="0" type="line"/>
			<point x="505" y="500" type="line"/>
			<point x="426" y="500" type="line"/>
			<point x="233" y="0" type="line"/>
		</contour>
		<contour>
			<point x="309" y="0" type="line"/>
			<point x="269" y="90" type="line"/>
			<point x="112" y="500" type="line"/>
			<point x="20" y="500" type="line"/>
			<point x="224" y="0" type="line"/>
		</contour>
		<contour>
			<point x="707" y="0" type="line"/>
			<point x="908" y="500" type="line"/>
			<point x="823" y="500" type="line"/>
			<point x="631" y="0" type="line"/>
		</contour>
		<contour>
			<point x="707" y="0" type="line"/>
			<point x="667" y="90" type="line"/>
			<point x="510" y="500" type="line"/>
			<point x="426" y="500" type="line"/>
			<point x="622" y="0" type="line"/>
		</contour>
	</outline>
</glyph>
<glyph name="x" format="2">
	<advance width="530"/>
	<unicode hex="0078"/>
	<outline>
		<contour>
			<point x="510" y="0" type="line"/>
			<point x="130" y="500" type="line"/>
			<point x="35" y="500" type="line"/>
			<point x="415" y="0" type="line"/>
		</contour>
		<contour>
			<point x="108" y="0" type="line"/>
			<point x="284" y="237" type="line"/>
			<point x="302" y="238" type="line"/>
			<point x="495" y="500" type="line"/>
			<point x="407" y="500" type="line"/>
			<point x="267" y="296" type="line"/>
			<point x="247" y="293" type="line"/>
			<point x="20" y="0" type="line"/>
		</contour>
	</outline>
</glyph>
<glyph name="y" format="2">
	<advance width="530"/>
	<unicode hex="0079"/>
	<outline>
		<contour>
			<point x="309" y="0" type="line"/>
			<point x="510" y="500" type="line"/>
			<point x="425" y="500" type="line"/>
			<point x="233" y="0" type="line"/>
		</contour>
		<contour>
			<point x="309" y="0" type="line"/>
			<point x="269" y="90" type="line"/>
			<point x="112" y="500" type="line"/>
			<point x="20" y="500" type="line"/>
			<point x="230" y="-15" type="line"/>
		</contour>
		<contour>
			<point x="272" y="-93" type="curve"/>
			<point x="309" y="0" type="line"/>
			<point x="230" y="0" type="line"/>
			<point x="197" y="-84" type="line"/>
			<point x="179" y="-126"/>
			<point x="151" y="-130"/>
			<point x="131" y="-130" type="curve"/>
			<point x="56" y="-130" type="line"/>
			<point x="56" y="-200" type="line"/>
			<point x="135" y="-200" type="line"/>
			<point x="197" y="-200"/>
			<point x="239" y="-170"/>
		</contour>
	</outline>
</glyph>
<glyph name="z" format="2">
	<advance width="613"/>
	<unicode hex="007A"/>
	<outline>
		<contour>
			<point x="95" y="430" type="line"/>
			<point x="532" y="430" type="line"/>
			<point x="532" y="500" type="line"/>
			<point x="95" y="500" type="line"/>
		</contour>
		<contour>
			<point x="75" y="70" type="line"/>
			<point x="180" y="70" type="line"/>
			<point x="532" y="430" type="line"/>
			<point x="427" y="430" type="line"/>
		</contour>
		<contour>
			<point x="75" y="0" type="line"/>
			<point x="538" y="0" type="line"/>
			<point x="538" y="70" type="line"/>
			<point x="75" y="70" type="line"/>
		</contour>
	</outline>
</glyph>
<glyph name="a.ss01" format="2">
	<advance width="654"/>
	<outline>
		<contour>
			<point x="285" y="-15" type="curve"/>
			<point x="450" y="-15"/>
			<point x="480" y="149"/>
			<point x="488" y="227" type="curve"/>
			<point x="478" y="268" type="line"/>
			<point x="474" y="198"/>
			<point x="411" y="55"/>
			<point x="285" y="55" type="curve"/>
			<point x="206" y="55"/>
			<point x="160" y="101"/>
			<point x="160" y="149" type="curve" smooth="yes"/>
			<point x="160" y="193"/>
			<point x="186" y="245"/>
			<point x="265" y="245" type="curve"/>
			<point x="339" y="245"/>
			<point x="392" y="235"/>
			<point x="456" y="225" type="curve"/>
			<point x="457" y="295" type="line"/>
			<point x="393" y="305"/>
			<point x="339" y="315"/>
			<point x="265" y="315" type="curve"/>
			<point x="138" y="315"/>
			<point x="75" y="261"/>
			<point x="75" y="149" type="curve" smooth="yes"/>
			<point x="75" y="32"/>
			<point x="158" y="-15"/>
		</contour>
		<contour>
			<point x="537" y="0" type="curve"/>
			<point x="579" y="0" type="line"/>
			<point x="579" y="70" type="line"/>
			<point x="547" y="70" type="line"/>
			<point x="527" y="70"/>
			<point x="515" y="83"/>
			<point x="515" y="106" type="curve"/>
			<point x="515" y="281" type="line"/>
			<point x="430" y="281" type="line"/>
			<point x="430" y="107" type="line"/>
			<point x="430" y="30"/>
			<point x="475" y="0"/>
		</contour>
		<contour>
			<point x="430" y="280" type="curve"/>
			<point x="515" y="280" type="line"/>
			<point x="515" y="432"/>
			<point x="442" y="515"/>
			<point x="305" y="515" type="curve" smooth="yes"/>
			<point x="186" y="515"/>
			<point x="136" y="468"/>
			<point x="97" y="424" type="curve"/>
			<point x="152" y="377" type="line"/>
			<point x="184" y="417"/>
			<point x="219" y="445"/>
			<point x="305" y="445" type="curve" smooth="yes"/>
			<point x="394" y="445"/>
			<point x="430" y="384"/>
		</contour>
	</outline>
</glyph>
